<svg id="Outline" height="512" viewBox="0 0 512 512" width="512" xmlns="http://www.w3.org/2000/svg"><path d="m320 16h-128a72.081 72.081 0 0 0 -72 72v368a40.045 40.045 0 0 0 40 40h192a40.045 40.045 0 0 0 40-40v-368a72.081 72.081 0 0 0 -72-72zm56 440a24.028 24.028 0 0 1 -24 24h-192a24.028 24.028 0 0 1 -24-24v-368a56.063 56.063 0 0 1 56-56h128a56.063 56.063 0 0 1 56 56z"/><path d="m320 104h-128a24.028 24.028 0 0 0 -24 24v72a24.028 24.028 0 0 0 24 24h128a24.028 24.028 0 0 0 24-24v-72a24.028 24.028 0 0 0 -24-24zm8 96a8.009 8.009 0 0 1 -8 8h-128a8.009 8.009 0 0 1 -8-8v-72a8.009 8.009 0 0 1 8-8h128a8.009 8.009 0 0 1 8 8z"/><path d="m304 136h-96a8 8 0 0 0 -8 8v40a8 8 0 0 0 8 8h96a8 8 0 0 0 8-8v-40a8 8 0 0 0 -8-8zm-8 40h-80v-24h80z"/><path d="m208 432h-16a8.009 8.009 0 0 1 -8-8v-104a8 8 0 0 0 -16 0v104a24.028 24.028 0 0 0 24 24h16a8 8 0 0 0 0-16z"/><path d="m336 312a8 8 0 0 0 -8 8v104a8.009 8.009 0 0 1 -8 8h-16a8 8 0 0 0 0 16h16a24.028 24.028 0 0 0 24-24v-104a8 8 0 0 0 -8-8z"/></svg>